# xmcd
#
# Track frame offsets:
#	150
#	13152
#	27637
#	44317
#	60055
#	69247
#	79957
#	91112
#	102475
#	114162
#	125860
#	139582
#	150052
#	160870
#	175367
#	187117
#	202767
#	215775
#	226810
#	238345
#	252325
#	265740
#	278507
#	291925
#	306640
#	319575
#
# Disc length: 4428 seconds
# Revision: 2
# Processed by: cddbd v1.5.2PL0 Copyright (c) Steve Scherf et al.
# Submitted via: dBpowerAMP V12.0
#
DISCID=6d114a1a
DTITLE=B. B. KING - THE COMPLETE RPM - KENT RECORDING BOX, CD2
DYEAR=2015
DGENRE=Blues
TTITLE0=Mistreated Woman
TTITLE1=B.B. Boogie
TTITLE2=The Other Night Blues
TTITLE3=Walkin' And Cryin'
TTITLE4=My Baby's Gone
TTITLE5=Don't You Want A Man Like Me
TTITLE6=B.B. Blues
TTITLE7=She's Dynamite
TTITLE8=She's A Mean Woman
TTITLE9=Hard Working Woman
TTITLE10=3 O'Clock Blues
TTITLE11=That Ain't The Way To Do It
TTITLE12=Fine Lookin' Woman
TTITLE13=She Don't Move Me No More
TTITLE14=Shake It Up And Go
TTITLE15=My Own Fault, Darlin'
TTITLE16=Some Day, Some Where
TTITLE17=Gotta Find My Baby
TTITLE18=You Didn't Want Me
TTITLE19=You Know I Love You
TTITLE20=Story From My Heart And Soul
TTITLE21=Boogie Woogie Woman
TTITLE22=Woke Up This Morning (My Baby She Was Gone)
TTITLE23=Don't Have To Cry (Past Day)
TTITLE24=Please Love Me
TTITLE25=Highway Bound
EXTD=
EXTT0=
EXTT1=
EXTT2=
EXTT3=
EXTT4=
EXTT5=
EXTT6=
EXTT7=
EXTT8=
EXTT9=
EXTT10=
EXTT11=
EXTT12=
EXTT13=
EXTT14=
EXTT15=
EXTT16=
EXTT17=
EXTT18=
EXTT19=
EXTT20=
EXTT21=
EXTT22=
EXTT23=
EXTT24=
EXTT25=
PLAYORDER=
